ISO-10303-21;
HEADER;
/* Generated by software containing ST-Developer
 * from STEP Tools, Inc. (www.steptools.com) 
 */

FILE_DESCRIPTION(
/* description */ (''),
/* implementation_level */ '2;1');

FILE_NAME(
/* name */ 
'C:\\Users\\Anonymus ~\\Desktop\\Metal Geaerbox DC Motor 37D With 64 C
PR Encoder Pololu.stp',
/* time_stamp */ '2021-04-26T09:04:34+07:00',
/* author */ ('Anonymus ~'),
/* organization */ (''),
/* preprocessor_version */ 'ST-DEVELOPER v18',
/* originating_system */ 'Autodesk Inventor 2020',
/* authorisation */ '');

FILE_SCHEMA (('AUTOMOTIVE_DESIGN { 1 0 10303 214 3 1 1 }'));
ENDSEC;

DATA;
#10=MECHANICAL_DESIGN_GEOMETRIC_PRESENTATION_REPRESENTATION('',(#25,#26,
#27,#28,#29,#30,#31),#1089);
#11=ITEM_DEFINED_TRANSFORMATION($,$,#608,#688);
#12=ITEM_DEFINED_TRANSFORMATION($,$,#670,#689);
#13=(
REPRESENTATION_RELATIONSHIP($,$,#1103,#1102)
REPRESENTATION_RELATIONSHIP_WITH_TRANSFORMATION(#11)
SHAPE_REPRESENTATION_RELATIONSHIP()
);
#14=(
REPRESENTATION_RELATIONSHIP($,$,#1104,#1102)
REPRESENTATION_RELATIONSHIP_WITH_TRANSFORMATION(#12)
SHAPE_REPRESENTATION_RELATIONSHIP()
);
#15=CONTEXT_DEPENDENT_SHAPE_REPRESENTATION(#13,#1100);
#16=CONTEXT_DEPENDENT_SHAPE_REPRESENTATION(#14,#1101);
#17=NEXT_ASSEMBLY_USAGE_OCCURRENCE('37D mm Metal Gearbox Polulu:1',
'37D mm Metal Gearbox Polulu:1','37D mm Metal Gearbox Polulu:1',#1106,#1107,
'37D mm Metal Gearbox Polulu:1');
#18=NEXT_ASSEMBLY_USAGE_OCCURRENCE(
'Motor DC 37D mm With 64 CPR Encoder:1',
'Motor DC 37D mm With 64 CPR Encoder:1',
'Motor DC 37D mm With 64 CPR Encoder:1',#1106,#1108,
'Motor DC 37D mm With 64 CPR Encoder:1');
#19=SHAPE_REPRESENTATION_RELATIONSHIP('SRR','None',#1103,#21);
#20=SHAPE_REPRESENTATION_RELATIONSHIP('SRR','None',#1104,#22);
#21=ADVANCED_BREP_SHAPE_REPRESENTATION('',(#23),#1087);
#22=ADVANCED_BREP_SHAPE_REPRESENTATION('',(#24),#1088);
#23=MANIFOLD_SOLID_BREP('Solid1',#528);
#24=MANIFOLD_SOLID_BREP('Solid1',#529);
#25=STYLED_ITEM('',(#554),#514);
#26=STYLED_ITEM('',(#554),#516);
#27=STYLED_ITEM('',(#554),#517);
#28=STYLED_ITEM('',(#553),#23);
#29=STYLED_ITEM('',(#556),#522);
#30=STYLED_ITEM('',(#556),#523);
#31=STYLED_ITEM('',(#555),#24);
#32=FACE_BOUND('',#105,.T.);
#33=FACE_BOUND('',#106,.T.);
#34=FACE_BOUND('',#107,.T.);
#35=FACE_BOUND('',#108,.T.);
#36=FACE_BOUND('',#109,.T.);
#37=FACE_BOUND('',#110,.T.);
#38=FACE_BOUND('',#111,.T.);
#39=FACE_BOUND('',#112,.T.);
#40=FACE_BOUND('',#123,.T.);
#41=FACE_BOUND('',#126,.T.);
#42=FACE_BOUND('',#127,.T.);
#43=FACE_BOUND('',#128,.T.);
#44=FACE_BOUND('',#129,.T.);
#45=FACE_BOUND('',#130,.T.);
#46=FACE_BOUND('',#131,.T.);
#47=FACE_BOUND('',#138,.T.);
#48=PLANE('',#641);
#49=PLANE('',#652);
#50=PLANE('',#653);
#51=PLANE('',#654);
#52=PLANE('',#661);
#53=PLANE('',#665);
#54=PLANE('',#669);
#55=PLANE('',#676);
#56=PLANE('',#686);
#57=PLANE('',#687);
#58=B_SPLINE_CURVE_WITH_KNOTS('',3,(#928,#929,#930,#931,#932,#933,#934,
#935,#936,#937,#938,#939,#940,#941),.UNSPECIFIED.,.F.,.F.,(4,2,2,2,2,2,
4),(-0.588876924774233,-0.587451106749901,-0.37413669639953,-0.328108781077555,
-0.310863032864269,-0.301236936482615,-0.293725553374949),.UNSPECIFIED.);
#59=B_SPLINE_CURVE_WITH_KNOTS('',3,(#944,#945,#946,#947,#948,#949,#950,
#951,#952,#953,#954,#955,#956,#957),.UNSPECIFIED.,.F.,.F.,(4,2,2,2,2,2,
4),(-0.293725553434559,-0.286214170324405,-0.276588073939563,-0.259342325720566,
-0.21331441038355,0.,0.00142581802473558),.UNSPECIFIED.);
#60=B_SPLINE_CURVE_WITH_KNOTS('',3,(#980,#981,#982,#983,#984,#985,#986,
#987,#988,#989,#990,#991,#992,#993),.UNSPECIFIED.,.F.,.F.,(4,2,2,2,2,2,
4),(-0.553863668478836,-0.552779065732296,-0.388645867426429,-0.330531923230343,
-0.303257298998185,-0.288145608989344,-0.276389532866141),.UNSPECIFIED.);
#61=B_SPLINE_CURVE_WITH_KNOTS('',3,(#995,#996,#997,#998,#999,#1000,#1001,
#1002,#1003,#1004,#1005,#1006,#1007,#1008,#1009,#1010),.UNSPECIFIED.,.F.,
 .F.,(4,2,2,2,2,2,2,4),(-0.464117912007515,-0.463016169668056,-0.37259565089433,
-0.291932896101497,-0.259610652960626,-0.245000125841004,-0.235886412428694,
-0.23078231754798),.UNSPECIFIED.);
#62=TOROIDAL_SURFACE('',#633,8.,0.5);
#63=TOROIDAL_SURFACE('',#636,13.4,0.5);
#64=TOROIDAL_SURFACE('',#646,12.4,0.5);
#65=TOROIDAL_SURFACE('',#649,9.,0.5);
#66=TOROIDAL_SURFACE('',#677,16.5,1.);
#67=FACE_OUTER_BOUND('',#95,.T.);
#68=FACE_OUTER_BOUND('',#96,.T.);
#69=FACE_OUTER_BOUND('',#97,.T.);
#70=FACE_OUTER_BOUND('',#98,.T.);
#71=FACE_OUTER_BOUND('',#99,.T.);
#72=FACE_OUTER_BOUND('',#100,.T.);
#73=FACE_OUTER_BOUND('',#101,.T.);
#74=FACE_OUTER_BOUND('',#102,.T.);
#75=FACE_OUTER_BOUND('',#103,.T.);
#76=FACE_OUTER_BOUND('',#104,.T.);
#77=FACE_OUTER_BOUND('',#113,.T.);
#78=FACE_OUTER_BOUND('',#114,.T.);
#79=FACE_OUTER_BOUND('',#115,.T.);
#80=FACE_OUTER_BOUND('',#116,.T.);
#81=FACE_OUTER_BOUND('',#117,.T.);
#82=FACE_OUTER_BOUND('',#118,.T.);
#83=FACE_OUTER_BOUND('',#119,.T.);
#84=FACE_OUTER_BOUND('',#120,.T.);
#85=FACE_OUTER_BOUND('',#121,.T.);
#86=FACE_OUTER_BOUND('',#122,.T.);
#87=FACE_OUTER_BOUND('',#124,.T.);
#88=FACE_OUTER_BOUND('',#125,.T.);
#89=FACE_OUTER_BOUND('',#132,.T.);
#90=FACE_OUTER_BOUND('',#133,.T.);
#91=FACE_OUTER_BOUND('',#134,.T.);
#92=FACE_OUTER_BOUND('',#135,.T.);
#93=FACE_OUTER_BOUND('',#136,.T.);
#94=FACE_OUTER_BOUND('',#137,.T.);
#95=EDGE_LOOP('',(#345,#346,#347,#348,#349));
#96=EDGE_LOOP('',(#350,#351,#352,#353,#354));
#97=EDGE_LOOP('',(#355,#356,#357,#358,#359));
#98=EDGE_LOOP('',(#360,#361,#362,#363,#364));
#99=EDGE_LOOP('',(#365,#366,#367,#368,#369));
#100=EDGE_LOOP('',(#370,#371,#372,#373,#374));
#101=EDGE_LOOP('',(#375,#376,#377,#378));
#102=EDGE_LOOP('',(#379,#380,#381,#382));
#103=EDGE_LOOP('',(#383,#384,#385,#386));
#104=EDGE_LOOP('',(#387,#388));
#105=EDGE_LOOP('',(#389,#390));
#106=EDGE_LOOP('',(#391,#392));
#107=EDGE_LOOP('',(#393,#394));
#108=EDGE_LOOP('',(#395,#396));
#109=EDGE_LOOP('',(#397,#398));
#110=EDGE_LOOP('',(#399,#400));
#111=EDGE_LOOP('',(#401,#402));
#112=EDGE_LOOP('',(#403,#404));
#113=EDGE_LOOP('',(#405,#406,#407,#408));
#114=EDGE_LOOP('',(#409,#410,#411,#412));
#115=EDGE_LOOP('',(#413,#414,#415,#416));
#116=EDGE_LOOP('',(#417,#418));
#117=EDGE_LOOP('',(#419,#420,#421,#422));
#118=EDGE_LOOP('',(#423,#424));
#119=EDGE_LOOP('',(#425,#426,#427,#428,#429,#430,#431,#432,#433));
#120=EDGE_LOOP('',(#434,#435,#436));
#121=EDGE_LOOP('',(#437,#438,#439,#440,#441,#442));
#122=EDGE_LOOP('',(#443,#444));
#123=EDGE_LOOP('',(#445,#446));
#124=EDGE_LOOP('',(#447,#448,#449,#450,#451,#452));
#125=EDGE_LOOP('',(#453,#454));
#126=EDGE_LOOP('',(#455));
#127=EDGE_LOOP('',(#456));
#128=EDGE_LOOP('',(#457));
#129=EDGE_LOOP('',(#458));
#130=EDGE_LOOP('',(#459));
#131=EDGE_LOOP('',(#460));
#132=EDGE_LOOP('',(#461,#462,#463,#464,#465,#466));
#133=EDGE_LOOP('',(#467,#468));
#134=EDGE_LOOP('',(#469,#470,#471,#472,#473,#474));
#135=EDGE_LOOP('',(#475,#476,#477,#478,#479,#480));
#136=EDGE_LOOP('',(#481,#482));
#137=EDGE_LOOP('',(#483,#484));
#138=EDGE_LOOP('',(#485,#486));
#139=LINE('',#881,#156);
#140=LINE('',#889,#157);
#141=LINE('',#897,#158);
#142=LINE('',#905,#159);
#143=LINE('',#913,#160);
#144=LINE('',#921,#161);
#145=LINE('',#963,#162);
#146=LINE('',#966,#163);
#147=LINE('',#1018,#164);
#148=LINE('',#1020,#165);
#149=LINE('',#1022,#166);
#150=LINE('',#1023,#167);
#151=LINE('',#1030,#168);
#152=LINE('',#1041,#169);
#153=LINE('',#1045,#170);
#154=LINE('',#1057,#171);
#155=LINE('',#1074,#172);
#156=VECTOR('',#700,1.5);
#157=VECTOR('',#709,1.5);
#158=VECTOR('',#718,1.5);
#159=VECTOR('',#727,1.5);
#160=VECTOR('',#736,1.5);
#161=VECTOR('',#745,1.5);
#162=VECTOR('',#762,10.);
#163=VECTOR('',#765,10.);
#164=VECTOR('',#792,10.);
#165=VECTOR('',#793,10.);
#166=VECTOR('',#794,10.);
#167=VECTOR('',#795,10.);
#168=VECTOR('',#804,3.);
#169=VECTOR('',#819,6.);
#170=VECTOR('',#824,18.4);
#171=VECTOR('',#839,17.);
#172=VECTOR('',#860,17.5);
#173=CIRCLE('',#610,1.5);
#174=CIRCLE('',#611,1.5);
#175=CIRCLE('',#612,1.5);
#176=CIRCLE('',#614,1.5);
#177=CIRCLE('',#615,1.5);
#178=CIRCLE('',#616,1.5);
#179=CIRCLE('',#618,1.5);
#180=CIRCLE('',#619,1.5);
#181=CIRCLE('',#620,1.5);
#182=CIRCLE('',#622,1.5);
#183=CIRCLE('',#623,1.5);
#184=CIRCLE('',#624,1.5);
#185=CIRCLE('',#626,1.5);
#186=CIRCLE('',#627,1.5);
#187=CIRCLE('',#628,1.5);
#188=CIRCLE('',#630,1.5);
#189=CIRCLE('',#631,1.5);
#190=CIRCLE('',#632,1.5);
#191=CIRCLE('',#634,8.);
#192=CIRCLE('',#635,8.5);
#193=CIRCLE('',#637,12.9);
#194=CIRCLE('',#638,13.4);
#195=CIRCLE('',#640,8.5);
#196=CIRCLE('',#642,18.4);
#197=CIRCLE('',#643,18.4);
#198=CIRCLE('',#644,6.);
#199=CIRCLE('',#645,6.);
#200=CIRCLE('',#647,12.4);
#201=CIRCLE('',#648,12.9);
#202=CIRCLE('',#650,9.);
#203=CIRCLE('',#655,3.);
#204=CIRCLE('',#657,3.);
#205=CIRCLE('',#658,3.);
#206=CIRCLE('',#659,3.);
#207=CIRCLE('',#660,3.);
#208=CIRCLE('',#663,6.);
#209=CIRCLE('',#664,6.);
#210=CIRCLE('',#667,18.4);
#211=CIRCLE('',#668,18.4);
#212=CIRCLE('',#672,17.);
#213=CIRCLE('',#673,17.);
#214=CIRCLE('',#674,17.);
#215=CIRCLE('',#675,17.);
#216=CIRCLE('',#678,16.5);
#217=CIRCLE('',#679,1.);
#218=CIRCLE('',#680,17.5);
#219=CIRCLE('',#681,17.5);
#220=CIRCLE('',#682,16.5);
#221=CIRCLE('',#684,17.5);
#222=CIRCLE('',#685,17.5);
#223=VERTEX_POINT('',#876);
#224=VERTEX_POINT('',#877);
#225=VERTEX_POINT('',#880);
#226=VERTEX_POINT('',#884);
#227=VERTEX_POINT('',#885);
#228=VERTEX_POINT('',#888);
#229=VERTEX_POINT('',#892);
#230=VERTEX_POINT('',#893);
#231=VERTEX_POINT('',#896);
#232=VERTEX_POINT('',#900);
#233=VERTEX_POINT('',#901);
#234=VERTEX_POINT('',#904);
#235=VERTEX_POINT('',#908);
#236=VERTEX_POINT('',#909);
#237=VERTEX_POINT('',#912);
#238=VERTEX_POINT('',#916);
#239=VERTEX_POINT('',#917);
#240=VERTEX_POINT('',#920);
#241=VERTEX_POINT('',#924);
#242=VERTEX_POINT('',#925);
#243=VERTEX_POINT('',#927);
#244=VERTEX_POINT('',#942);
#245=VERTEX_POINT('',#962);
#246=VERTEX_POINT('',#964);
#247=VERTEX_POINT('',#968);
#248=VERTEX_POINT('',#969);
#249=VERTEX_POINT('',#972);
#250=VERTEX_POINT('',#973);
#251=VERTEX_POINT('',#977);
#252=VERTEX_POINT('',#978);
#253=VERTEX_POINT('',#1016);
#254=VERTEX_POINT('',#1017);
#255=VERTEX_POINT('',#1019);
#256=VERTEX_POINT('',#1021);
#257=VERTEX_POINT('',#1027);
#258=VERTEX_POINT('',#1029);
#259=VERTEX_POINT('',#1031);
#260=VERTEX_POINT('',#1037);
#261=VERTEX_POINT('',#1038);
#262=VERTEX_POINT('',#1044);
#263=VERTEX_POINT('',#1046);
#264=VERTEX_POINT('',#1052);
#265=VERTEX_POINT('',#1053);
#266=VERTEX_POINT('',#1056);
#267=VERTEX_POINT('',#1058);
#268=VERTEX_POINT('',#1063);
#269=VERTEX_POINT('',#1064);
#270=VERTEX_POINT('',#1066);
#271=VERTEX_POINT('',#1068);
#272=VERTEX_POINT('',#1073);
#273=VERTEX_POINT('',#1075);
#274=EDGE_CURVE('',#223,#224,#173,.T.);
#275=EDGE_CURVE('',#224,#223,#174,.T.);
#276=EDGE_CURVE('',#224,#225,#139,.T.);
#277=EDGE_CURVE('',#225,#225,#175,.T.);
#278=EDGE_CURVE('',#226,#227,#176,.T.);
#279=EDGE_CURVE('',#227,#226,#177,.T.);
#280=EDGE_CURVE('',#227,#228,#140,.T.);
#281=EDGE_CURVE('',#228,#228,#178,.T.);
#282=EDGE_CURVE('',#229,#230,#179,.T.);
#283=EDGE_CURVE('',#230,#229,#180,.T.);
#284=EDGE_CURVE('',#230,#231,#141,.T.);
#285=EDGE_CURVE('',#231,#231,#181,.T.);
#286=EDGE_CURVE('',#232,#233,#182,.T.);
#287=EDGE_CURVE('',#233,#232,#183,.T.);
#288=EDGE_CURVE('',#233,#234,#142,.T.);
#289=EDGE_CURVE('',#234,#234,#184,.T.);
#290=EDGE_CURVE('',#235,#236,#185,.T.);
#291=EDGE_CURVE('',#236,#235,#186,.T.);
#292=EDGE_CURVE('',#236,#237,#143,.T.);
#293=EDGE_CURVE('',#237,#237,#187,.T.);
#294=EDGE_CURVE('',#238,#239,#188,.T.);
#295=EDGE_CURVE('',#239,#238,#189,.T.);
#296=EDGE_CURVE('',#239,#240,#144,.T.);
#297=EDGE_CURVE('',#240,#240,#190,.T.);
#298=EDGE_CURVE('',#241,#242,#191,.T.);
#299=EDGE_CURVE('',#242,#243,#58,.T.);
#300=EDGE_CURVE('',#243,#244,#192,.T.);
#301=EDGE_CURVE('',#244,#241,#59,.T.);
#302=EDGE_CURVE('',#244,#243,#193,.T.);
#303=EDGE_CURVE('',#242,#241,#194,.T.);
#304=EDGE_CURVE('',#243,#245,#145,.T.);
#305=EDGE_CURVE('',#246,#245,#195,.T.);
#306=EDGE_CURVE('',#244,#246,#146,.T.);
#307=EDGE_CURVE('',#247,#248,#196,.T.);
#308=EDGE_CURVE('',#248,#247,#197,.T.);
#309=EDGE_CURVE('',#249,#250,#198,.T.);
#310=EDGE_CURVE('',#250,#249,#199,.T.);
#311=EDGE_CURVE('',#251,#252,#200,.T.);
#312=EDGE_CURVE('',#252,#245,#60,.T.);
#313=EDGE_CURVE('',#245,#246,#201,.T.);
#314=EDGE_CURVE('',#251,#246,#61,.T.);
#315=EDGE_CURVE('',#252,#251,#202,.T.);
#316=EDGE_CURVE('',#253,#254,#147,.T.);
#317=EDGE_CURVE('',#255,#253,#148,.T.);
#318=EDGE_CURVE('',#255,#256,#149,.T.);
#319=EDGE_CURVE('',#254,#256,#150,.T.);
#320=EDGE_CURVE('',#256,#255,#203,.T.);
#321=EDGE_CURVE('',#257,#253,#204,.T.);
#322=EDGE_CURVE('',#257,#258,#151,.T.);
#323=EDGE_CURVE('',#259,#258,#205,.T.);
#324=EDGE_CURVE('',#258,#259,#206,.T.);
#325=EDGE_CURVE('',#254,#257,#207,.T.);
#326=EDGE_CURVE('',#260,#261,#208,.T.);
#327=EDGE_CURVE('',#261,#260,#209,.T.);
#328=EDGE_CURVE('',#261,#250,#152,.T.);
#329=EDGE_CURVE('',#248,#262,#153,.T.);
#330=EDGE_CURVE('',#262,#263,#210,.T.);
#331=EDGE_CURVE('',#263,#262,#211,.T.);
#332=EDGE_CURVE('',#264,#265,#212,.T.);
#333=EDGE_CURVE('',#265,#264,#213,.T.);
#334=EDGE_CURVE('',#265,#266,#154,.T.);
#335=EDGE_CURVE('',#267,#266,#214,.T.);
#336=EDGE_CURVE('',#266,#267,#215,.T.);
#337=EDGE_CURVE('',#268,#269,#216,.T.);
#338=EDGE_CURVE('',#269,#270,#217,.T.);
#339=EDGE_CURVE('',#270,#271,#218,.T.);
#340=EDGE_CURVE('',#271,#270,#219,.T.);
#341=EDGE_CURVE('',#269,#268,#220,.T.);
#342=EDGE_CURVE('',#270,#272,#155,.T.);
#343=EDGE_CURVE('',#272,#273,#221,.T.);
#344=EDGE_CURVE('',#273,#272,#222,.T.);
#345=ORIENTED_EDGE('',*,*,#274,.F.);
#346=ORIENTED_EDGE('',*,*,#275,.F.);
#347=ORIENTED_EDGE('',*,*,#276,.T.);
#348=ORIENTED_EDGE('',*,*,#277,.F.);
#349=ORIENTED_EDGE('',*,*,#276,.F.);
#350=ORIENTED_EDGE('',*,*,#278,.F.);
#351=ORIENTED_EDGE('',*,*,#279,.F.);
#352=ORIENTED_EDGE('',*,*,#280,.T.);
#353=ORIENTED_EDGE('',*,*,#281,.F.);
#354=ORIENTED_EDGE('',*,*,#280,.F.);
#355=ORIENTED_EDGE('',*,*,#282,.F.);
#356=ORIENTED_EDGE('',*,*,#283,.F.);
#357=ORIENTED_EDGE('',*,*,#284,.T.);
#358=ORIENTED_EDGE('',*,*,#285,.F.);
#359=ORIENTED_EDGE('',*,*,#284,.F.);
#360=ORIENTED_EDGE('',*,*,#286,.F.);
#361=ORIENTED_EDGE('',*,*,#287,.F.);
#362=ORIENTED_EDGE('',*,*,#288,.T.);
#363=ORIENTED_EDGE('',*,*,#289,.F.);
#364=ORIENTED_EDGE('',*,*,#288,.F.);
#365=ORIENTED_EDGE('',*,*,#290,.F.);
#366=ORIENTED_EDGE('',*,*,#291,.F.);
#367=ORIENTED_EDGE('',*,*,#292,.T.);
#368=ORIENTED_EDGE('',*,*,#293,.F.);
#369=ORIENTED_EDGE('',*,*,#292,.F.);
#370=ORIENTED_EDGE('',*,*,#294,.F.);
#371=ORIENTED_EDGE('',*,*,#295,.F.);
#372=ORIENTED_EDGE('',*,*,#296,.T.);
#373=ORIENTED_EDGE('',*,*,#297,.F.);
#374=ORIENTED_EDGE('',*,*,#296,.F.);
#375=ORIENTED_EDGE('',*,*,#298,.T.);
#376=ORIENTED_EDGE('',*,*,#299,.T.);
#377=ORIENTED_EDGE('',*,*,#300,.T.);
#378=ORIENTED_EDGE('',*,*,#301,.T.);
#379=ORIENTED_EDGE('',*,*,#302,.T.);
#380=ORIENTED_EDGE('',*,*,#299,.F.);
#381=ORIENTED_EDGE('',*,*,#303,.T.);
#382=ORIENTED_EDGE('',*,*,#301,.F.);
#383=ORIENTED_EDGE('',*,*,#300,.F.);
#384=ORIENTED_EDGE('',*,*,#304,.T.);
#385=ORIENTED_EDGE('',*,*,#305,.F.);
#386=ORIENTED_EDGE('',*,*,#306,.F.);
#387=ORIENTED_EDGE('',*,*,#307,.T.);
#388=ORIENTED_EDGE('',*,*,#308,.T.);
#389=ORIENTED_EDGE('',*,*,#274,.T.);
#390=ORIENTED_EDGE('',*,*,#275,.T.);
#391=ORIENTED_EDGE('',*,*,#278,.T.);
#392=ORIENTED_EDGE('',*,*,#279,.T.);
#393=ORIENTED_EDGE('',*,*,#282,.T.);
#394=ORIENTED_EDGE('',*,*,#283,.T.);
#395=ORIENTED_EDGE('',*,*,#286,.T.);
#396=ORIENTED_EDGE('',*,*,#287,.T.);
#397=ORIENTED_EDGE('',*,*,#290,.T.);
#398=ORIENTED_EDGE('',*,*,#291,.T.);
#399=ORIENTED_EDGE('',*,*,#294,.T.);
#400=ORIENTED_EDGE('',*,*,#295,.T.);
#401=ORIENTED_EDGE('',*,*,#309,.T.);
#402=ORIENTED_EDGE('',*,*,#310,.T.);
#403=ORIENTED_EDGE('',*,*,#298,.F.);
#404=ORIENTED_EDGE('',*,*,#303,.F.);
#405=ORIENTED_EDGE('',*,*,#311,.T.);
#406=ORIENTED_EDGE('',*,*,#312,.T.);
#407=ORIENTED_EDGE('',*,*,#313,.T.);
#408=ORIENTED_EDGE('',*,*,#314,.F.);
#409=ORIENTED_EDGE('',*,*,#305,.T.);
#410=ORIENTED_EDGE('',*,*,#312,.F.);
#411=ORIENTED_EDGE('',*,*,#315,.T.);
#412=ORIENTED_EDGE('',*,*,#314,.T.);
#413=ORIENTED_EDGE('',*,*,#302,.F.);
#414=ORIENTED_EDGE('',*,*,#306,.T.);
#415=ORIENTED_EDGE('',*,*,#313,.F.);
#416=ORIENTED_EDGE('',*,*,#304,.F.);
#417=ORIENTED_EDGE('',*,*,#311,.F.);
#418=ORIENTED_EDGE('',*,*,#315,.F.);
#419=ORIENTED_EDGE('',*,*,#316,.F.);
#420=ORIENTED_EDGE('',*,*,#317,.F.);
#421=ORIENTED_EDGE('',*,*,#318,.T.);
#422=ORIENTED_EDGE('',*,*,#319,.F.);
#423=ORIENTED_EDGE('',*,*,#320,.F.);
#424=ORIENTED_EDGE('',*,*,#318,.F.);
#425=ORIENTED_EDGE('',*,*,#319,.T.);
#426=ORIENTED_EDGE('',*,*,#320,.T.);
#427=ORIENTED_EDGE('',*,*,#317,.T.);
#428=ORIENTED_EDGE('',*,*,#321,.F.);
#429=ORIENTED_EDGE('',*,*,#322,.T.);
#430=ORIENTED_EDGE('',*,*,#323,.F.);
#431=ORIENTED_EDGE('',*,*,#324,.F.);
#432=ORIENTED_EDGE('',*,*,#322,.F.);
#433=ORIENTED_EDGE('',*,*,#325,.F.);
#434=ORIENTED_EDGE('',*,*,#316,.T.);
#435=ORIENTED_EDGE('',*,*,#325,.T.);
#436=ORIENTED_EDGE('',*,*,#321,.T.);
#437=ORIENTED_EDGE('',*,*,#326,.F.);
#438=ORIENTED_EDGE('',*,*,#327,.F.);
#439=ORIENTED_EDGE('',*,*,#328,.T.);
#440=ORIENTED_EDGE('',*,*,#309,.F.);
#441=ORIENTED_EDGE('',*,*,#310,.F.);
#442=ORIENTED_EDGE('',*,*,#328,.F.);
#443=ORIENTED_EDGE('',*,*,#326,.T.);
#444=ORIENTED_EDGE('',*,*,#327,.T.);
#445=ORIENTED_EDGE('',*,*,#323,.T.);
#446=ORIENTED_EDGE('',*,*,#324,.T.);
#447=ORIENTED_EDGE('',*,*,#307,.F.);
#448=ORIENTED_EDGE('',*,*,#308,.F.);
#449=ORIENTED_EDGE('',*,*,#329,.T.);
#450=ORIENTED_EDGE('',*,*,#330,.T.);
#451=ORIENTED_EDGE('',*,*,#331,.T.);
#452=ORIENTED_EDGE('',*,*,#329,.F.);
#453=ORIENTED_EDGE('',*,*,#331,.F.);
#454=ORIENTED_EDGE('',*,*,#330,.F.);
#455=ORIENTED_EDGE('',*,*,#277,.T.);
#456=ORIENTED_EDGE('',*,*,#281,.T.);
#457=ORIENTED_EDGE('',*,*,#285,.T.);
#458=ORIENTED_EDGE('',*,*,#289,.T.);
#459=ORIENTED_EDGE('',*,*,#293,.T.);
#460=ORIENTED_EDGE('',*,*,#297,.T.);
#461=ORIENTED_EDGE('',*,*,#332,.F.);
#462=ORIENTED_EDGE('',*,*,#333,.F.);
#463=ORIENTED_EDGE('',*,*,#334,.T.);
#464=ORIENTED_EDGE('',*,*,#335,.F.);
#465=ORIENTED_EDGE('',*,*,#336,.F.);
#466=ORIENTED_EDGE('',*,*,#334,.F.);
#467=ORIENTED_EDGE('',*,*,#332,.T.);
#468=ORIENTED_EDGE('',*,*,#333,.T.);
#469=ORIENTED_EDGE('',*,*,#337,.T.);
#470=ORIENTED_EDGE('',*,*,#338,.T.);
#471=ORIENTED_EDGE('',*,*,#339,.T.);
#472=ORIENTED_EDGE('',*,*,#340,.T.);
#473=ORIENTED_EDGE('',*,*,#338,.F.);
#474=ORIENTED_EDGE('',*,*,#341,.T.);
#475=ORIENTED_EDGE('',*,*,#340,.F.);
#476=ORIENTED_EDGE('',*,*,#339,.F.);
#477=ORIENTED_EDGE('',*,*,#342,.T.);
#478=ORIENTED_EDGE('',*,*,#343,.T.);
#479=ORIENTED_EDGE('',*,*,#344,.T.);
#480=ORIENTED_EDGE('',*,*,#342,.F.);
#481=ORIENTED_EDGE('',*,*,#337,.F.);
#482=ORIENTED_EDGE('',*,*,#341,.F.);
#483=ORIENTED_EDGE('',*,*,#344,.F.);
#484=ORIENTED_EDGE('',*,*,#343,.F.);
#485=ORIENTED_EDGE('',*,*,#335,.T.);
#486=ORIENTED_EDGE('',*,*,#336,.T.);
#487=CYLINDRICAL_SURFACE('',#609,1.5);
#488=CYLINDRICAL_SURFACE('',#613,1.5);
#489=CYLINDRICAL_SURFACE('',#617,1.5);
#490=CYLINDRICAL_SURFACE('',#621,1.5);
#491=CYLINDRICAL_SURFACE('',#625,1.5);
#492=CYLINDRICAL_SURFACE('',#629,1.5);
#493=CYLINDRICAL_SURFACE('',#639,8.5);
#494=CYLINDRICAL_SURFACE('',#651,12.9);
#495=CYLINDRICAL_SURFACE('',#656,3.);
#496=CYLINDRICAL_SURFACE('',#662,6.);
#497=CYLINDRICAL_SURFACE('',#666,18.4);
#498=CYLINDRICAL_SURFACE('',#671,17.);
#499=CYLINDRICAL_SURFACE('',#683,17.5);
#500=ADVANCED_FACE('',(#67),#487,.F.);
#501=ADVANCED_FACE('',(#68),#488,.F.);
#502=ADVANCED_FACE('',(#69),#489,.F.);
#503=ADVANCED_FACE('',(#70),#490,.F.);
#504=ADVANCED_FACE('',(#71),#491,.F.);
#505=ADVANCED_FACE('',(#72),#492,.F.);
#506=ADVANCED_FACE('',(#73),#62,.T.);
#507=ADVANCED_FACE('',(#74),#63,.T.);
#508=ADVANCED_FACE('',(#75),#493,.T.);
#509=ADVANCED_FACE('',(#76,#32,#33,#34,#35,#36,#37,#38,#39),#48,.T.);
#510=ADVANCED_FACE('',(#77),#64,.F.);
#511=ADVANCED_FACE('',(#78),#65,.F.);
#512=ADVANCED_FACE('',(#79),#494,.F.);
#513=ADVANCED_FACE('',(#80),#49,.T.);
#514=ADVANCED_FACE('',(#81),#50,.F.);
#515=ADVANCED_FACE('',(#82),#51,.T.);
#516=ADVANCED_FACE('',(#83),#495,.T.);
#517=ADVANCED_FACE('',(#84),#52,.T.);
#518=ADVANCED_FACE('',(#85),#496,.T.);
#519=ADVANCED_FACE('',(#86,#40),#53,.T.);
#520=ADVANCED_FACE('',(#87),#497,.T.);
#521=ADVANCED_FACE('',(#88,#41,#42,#43,#44,#45,#46),#54,.F.);
#522=ADVANCED_FACE('',(#89),#498,.T.);
#523=ADVANCED_FACE('',(#90),#55,.T.);
#524=ADVANCED_FACE('',(#91),#66,.T.);
#525=ADVANCED_FACE('',(#92),#499,.T.);
#526=ADVANCED_FACE('',(#93),#56,.T.);
#527=ADVANCED_FACE('',(#94,#47),#57,.F.);
#528=CLOSED_SHELL('',(#500,#501,#502,#503,#504,#505,#506,#507,#508,#509,
#510,#511,#512,#513,#514,#515,#516,#517,#518,#519,#520,#521));
#529=CLOSED_SHELL('',(#522,#523,#524,#525,#526,#527));
#530=DERIVED_UNIT_ELEMENT(#534,1.);
#531=DERIVED_UNIT_ELEMENT(#1091,3.);
#532=DERIVED_UNIT_ELEMENT(#534,1.);
#533=DERIVED_UNIT_ELEMENT(#1091,3.);
#534=(
MASS_UNIT()
NAMED_UNIT(*)
SI_UNIT($,.GRAM.)
);
#535=DERIVED_UNIT((#530,#531));
#536=DERIVED_UNIT((#532,#533));
#537=MEASURE_REPRESENTATION_ITEM('density measure',
POSITIVE_RATIO_MEASURE(1.),#535);
#538=MEASURE_REPRESENTATION_ITEM('density measure',
POSITIVE_RATIO_MEASURE(1.),#536);
#539=PROPERTY_DEFINITION_REPRESENTATION(#549,#543);
#540=PROPERTY_DEFINITION_REPRESENTATION(#550,#544);
#541=PROPERTY_DEFINITION_REPRESENTATION(#551,#545);
#542=PROPERTY_DEFINITION_REPRESENTATION(#552,#546);
#543=REPRESENTATION('material name',(#547),#1087);
#544=REPRESENTATION('density',(#537),#1087);
#545=REPRESENTATION('material name',(#548),#1088);
#546=REPRESENTATION('density',(#538),#1088);
#547=DESCRIPTIVE_REPRESENTATION_ITEM('Generic','Generic');
#548=DESCRIPTIVE_REPRESENTATION_ITEM('Generic','Generic');
#549=PROPERTY_DEFINITION('material property','material name',#1107);
#550=PROPERTY_DEFINITION('material property','density of part',#1107);
#551=PROPERTY_DEFINITION('material property','material name',#1108);
#552=PROPERTY_DEFINITION('material property','density of part',#1108);
#553=PRESENTATION_STYLE_ASSIGNMENT((#557));
#554=PRESENTATION_STYLE_ASSIGNMENT((#558));
#555=PRESENTATION_STYLE_ASSIGNMENT((#559));
#556=PRESENTATION_STYLE_ASSIGNMENT((#560));
#557=SURFACE_STYLE_USAGE(.BOTH.,#569);
#558=SURFACE_STYLE_USAGE(.BOTH.,#570);
#559=SURFACE_STYLE_USAGE(.BOTH.,#571);
#560=SURFACE_STYLE_USAGE(.BOTH.,#572);
#561=SURFACE_STYLE_RENDERING_WITH_PROPERTIES($,#585,(#565));
#562=SURFACE_STYLE_RENDERING_WITH_PROPERTIES($,#586,(#566));
#563=SURFACE_STYLE_RENDERING_WITH_PROPERTIES($,#587,(#567));
#564=SURFACE_STYLE_RENDERING_WITH_PROPERTIES($,#588,(#568));
#565=SURFACE_STYLE_TRANSPARENT(0.);
#566=SURFACE_STYLE_TRANSPARENT(0.);
#567=SURFACE_STYLE_TRANSPARENT(0.);
#568=SURFACE_STYLE_TRANSPARENT(0.);
#569=SURFACE_SIDE_STYLE('',(#573,#561));
#570=SURFACE_SIDE_STYLE('',(#574,#562));
#571=SURFACE_SIDE_STYLE('',(#575,#563));
#572=SURFACE_SIDE_STYLE('',(#576,#564));
#573=SURFACE_STYLE_FILL_AREA(#577);
#574=SURFACE_STYLE_FILL_AREA(#578);
#575=SURFACE_STYLE_FILL_AREA(#579);
#576=SURFACE_STYLE_FILL_AREA(#580);
#577=FILL_AREA_STYLE('',(#581));
#578=FILL_AREA_STYLE('',(#582));
#579=FILL_AREA_STYLE('',(#583));
#580=FILL_AREA_STYLE('',(#584));
#581=FILL_AREA_STYLE_COLOUR('',#585);
#582=FILL_AREA_STYLE_COLOUR('',#586);
#583=FILL_AREA_STYLE_COLOUR('',#587);
#584=FILL_AREA_STYLE_COLOUR('',#588);
#585=COLOUR_RGB('',1.,0.996078431372549,0.964705882352941);
#586=COLOUR_RGB('',0.745098039215686,0.737254901960784,0.729411764705882);
#587=COLOUR_RGB('',0.372549019607843,0.372549019607843,0.380392156862745);
#588=COLOUR_RGB('',0.,0.,0.);
#589=DATE_TIME_ROLE('creation_date');
#590=DATE_TIME_ROLE('creation_date');
#591=DATE_TIME_ROLE('creation_date');
#592=APPLIED_DATE_AND_TIME_ASSIGNMENT(#595,#589,(#1106));
#593=APPLIED_DATE_AND_TIME_ASSIGNMENT(#596,#590,(#1107));
#594=APPLIED_DATE_AND_TIME_ASSIGNMENT(#597,#591,(#1108));
#595=DATE_AND_TIME(#598,#601);
#596=DATE_AND_TIME(#599,#602);
#597=DATE_AND_TIME(#600,#603);
#598=CALENDAR_DATE(2021,26,4);
#599=CALENDAR_DATE(2021,26,4);
#600=CALENDAR_DATE(2021,26,4);
#601=LOCAL_TIME(1,59,1.,#604);
#602=LOCAL_TIME(1,33,3.,#605);
#603=LOCAL_TIME(1,55,3.,#606);
#604=COORDINATED_UNIVERSAL_TIME_OFFSET(0,0,.BEHIND.);
#605=COORDINATED_UNIVERSAL_TIME_OFFSET(0,0,.BEHIND.);
#606=COORDINATED_UNIVERSAL_TIME_OFFSET(0,0,.BEHIND.);
#607=AXIS2_PLACEMENT_3D('placement',#873,#690,#691);
#608=AXIS2_PLACEMENT_3D('placement',#874,#692,#693);
#609=AXIS2_PLACEMENT_3D('',#875,#694,#695);
#610=AXIS2_PLACEMENT_3D('',#878,#696,#697);
#611=AXIS2_PLACEMENT_3D('',#879,#698,#699);
#612=AXIS2_PLACEMENT_3D('',#882,#701,#702);
#613=AXIS2_PLACEMENT_3D('',#883,#703,#704);
#614=AXIS2_PLACEMENT_3D('',#886,#705,#706);
#615=AXIS2_PLACEMENT_3D('',#887,#707,#708);
#616=AXIS2_PLACEMENT_3D('',#890,#710,#711);
#617=AXIS2_PLACEMENT_3D('',#891,#712,#713);
#618=AXIS2_PLACEMENT_3D('',#894,#714,#715);
#619=AXIS2_PLACEMENT_3D('',#895,#716,#717);
#620=AXIS2_PLACEMENT_3D('',#898,#719,#720);
#621=AXIS2_PLACEMENT_3D('',#899,#721,#722);
#622=AXIS2_PLACEMENT_3D('',#902,#723,#724);
#623=AXIS2_PLACEMENT_3D('',#903,#725,#726);
#624=AXIS2_PLACEMENT_3D('',#906,#728,#729);
#625=AXIS2_PLACEMENT_3D('',#907,#730,#731);
#626=AXIS2_PLACEMENT_3D('',#910,#732,#733);
#627=AXIS2_PLACEMENT_3D('',#911,#734,#735);
#628=AXIS2_PLACEMENT_3D('',#914,#737,#738);
#629=AXIS2_PLACEMENT_3D('',#915,#739,#740);
#630=AXIS2_PLACEMENT_3D('',#918,#741,#742);
#631=AXIS2_PLACEMENT_3D('',#919,#743,#744);
#632=AXIS2_PLACEMENT_3D('',#922,#746,#747);
#633=AXIS2_PLACEMENT_3D('',#923,#748,#749);
#634=AXIS2_PLACEMENT_3D('',#926,#750,#751);
#635=AXIS2_PLACEMENT_3D('',#943,#752,#753);
#636=AXIS2_PLACEMENT_3D('',#958,#754,#755);
#637=AXIS2_PLACEMENT_3D('',#959,#756,#757);
#638=AXIS2_PLACEMENT_3D('',#960,#758,#759);
#639=AXIS2_PLACEMENT_3D('',#961,#760,#761);
#640=AXIS2_PLACEMENT_3D('',#965,#763,#764);
#641=AXIS2_PLACEMENT_3D('',#967,#766,#767);
#642=AXIS2_PLACEMENT_3D('',#970,#768,#769);
#643=AXIS2_PLACEMENT_3D('',#971,#770,#771);
#644=AXIS2_PLACEMENT_3D('',#974,#772,#773);
#645=AXIS2_PLACEMENT_3D('',#975,#774,#775);
#646=AXIS2_PLACEMENT_3D('',#976,#776,#777);
#647=AXIS2_PLACEMENT_3D('',#979,#778,#779);
#648=AXIS2_PLACEMENT_3D('',#994,#780,#781);
#649=AXIS2_PLACEMENT_3D('',#1011,#782,#783);
#650=AXIS2_PLACEMENT_3D('',#1012,#784,#785);
#651=AXIS2_PLACEMENT_3D('',#1013,#786,#787);
#652=AXIS2_PLACEMENT_3D('',#1014,#788,#789);
#653=AXIS2_PLACEMENT_3D('',#1015,#790,#791);
#654=AXIS2_PLACEMENT_3D('',#1024,#796,#797);
#655=AXIS2_PLACEMENT_3D('',#1025,#798,#799);
#656=AXIS2_PLACEMENT_3D('',#1026,#800,#801);
#657=AXIS2_PLACEMENT_3D('',#1028,#802,#803);
#658=AXIS2_PLACEMENT_3D('',#1032,#805,#806);
#659=AXIS2_PLACEMENT_3D('',#1033,#807,#808);
#660=AXIS2_PLACEMENT_3D('',#1034,#809,#810);
#661=AXIS2_PLACEMENT_3D('',#1035,#811,#812);
#662=AXIS2_PLACEMENT_3D('',#1036,#813,#814);
#663=AXIS2_PLACEMENT_3D('',#1039,#815,#816);
#664=AXIS2_PLACEMENT_3D('',#1040,#817,#818);
#665=AXIS2_PLACEMENT_3D('',#1042,#820,#821);
#666=AXIS2_PLACEMENT_3D('',#1043,#822,#823);
#667=AXIS2_PLACEMENT_3D('',#1047,#825,#826);
#668=AXIS2_PLACEMENT_3D('',#1048,#827,#828);
#669=AXIS2_PLACEMENT_3D('',#1049,#829,#830);
#670=AXIS2_PLACEMENT_3D('placement',#1050,#831,#832);
#671=AXIS2_PLACEMENT_3D('',#1051,#833,#834);
#672=AXIS2_PLACEMENT_3D('',#1054,#835,#836);
#673=AXIS2_PLACEMENT_3D('',#1055,#837,#838);
#674=AXIS2_PLACEMENT_3D('',#1059,#840,#841);
#675=AXIS2_PLACEMENT_3D('',#1060,#842,#843);
#676=AXIS2_PLACEMENT_3D('',#1061,#844,#845);
#677=AXIS2_PLACEMENT_3D('',#1062,#846,#847);
#678=AXIS2_PLACEMENT_3D('',#1065,#848,#849);
#679=AXIS2_PLACEMENT_3D('',#1067,#850,#851);
#680=AXIS2_PLACEMENT_3D('',#1069,#852,#853);
#681=AXIS2_PLACEMENT_3D('',#1070,#854,#855);
#682=AXIS2_PLACEMENT_3D('',#1071,#856,#857);
#683=AXIS2_PLACEMENT_3D('',#1072,#858,#859);
#684=AXIS2_PLACEMENT_3D('',#1076,#861,#862);
#685=AXIS2_PLACEMENT_3D('',#1077,#863,#864);
#686=AXIS2_PLACEMENT_3D('',#1078,#865,#866);
#687=AXIS2_PLACEMENT_3D('',#1079,#867,#868);
#688=AXIS2_PLACEMENT_3D('',#1080,#869,#870);
#689=AXIS2_PLACEMENT_3D('',#1081,#871,#872);
#690=DIRECTION('axis',(0.,0.,1.));
#691=DIRECTION('refdir',(1.,0.,0.));
#692=DIRECTION('axis',(0.,0.,1.));
#693=DIRECTION('refdir',(1.,0.,0.));
#694=DIRECTION('center_axis',(0.,0.,-1.));
#695=DIRECTION('ref_axis',(1.,0.,0.));
#696=DIRECTION('center_axis',(0.,0.,-1.));
#697=DIRECTION('ref_axis',(1.,0.,0.));
#698=DIRECTION('center_axis',(0.,0.,-1.));
#699=DIRECTION('ref_axis',(1.,0.,0.));
#700=DIRECTION('',(0.,0.,-1.));
#701=DIRECTION('center_axis',(0.,0.,1.));
#702=DIRECTION('ref_axis',(1.,0.,0.));
#703=DIRECTION('center_axis',(0.,0.,-1.));
#704=DIRECTION('ref_axis',(1.,0.,0.));
#705=DIRECTION('center_axis',(0.,0.,-1.));
#706=DIRECTION('ref_axis',(1.,0.,0.));
#707=DIRECTION('center_axis',(0.,0.,-1.));
#708=DIRECTION('ref_axis',(1.,0.,0.));
#709=DIRECTION('',(0.,0.,-1.));
#710=DIRECTION('center_axis',(0.,0.,1.));
#711=DIRECTION('ref_axis',(1.,0.,0.));
#712=DIRECTION('center_axis',(0.,0.,-1.));
#713=DIRECTION('ref_axis',(1.,0.,0.));
#714=DIRECTION('center_axis',(0.,0.,-1.));
#715=DIRECTION('ref_axis',(1.,0.,0.));
#716=DIRECTION('center_axis',(0.,0.,-1.));
#717=DIRECTION('ref_axis',(1.,0.,0.));
#718=DIRECTION('',(0.,0.,-1.));
#719=DIRECTION('center_axis',(0.,0.,1.));
#720=DIRECTION('ref_axis',(1.,0.,0.));
#721=DIRECTION('center_axis',(0.,0.,-1.));
#722=DIRECTION('ref_axis',(1.,0.,0.));
#723=DIRECTION('center_axis',(0.,0.,-1.));
#724=DIRECTION('ref_axis',(1.,0.,0.));
#725=DIRECTION('center_axis',(0.,0.,-1.));
#726=DIRECTION('ref_axis',(1.,0.,0.));
#727=DIRECTION('',(0.,0.,-1.));
#728=DIRECTION('center_axis',(0.,0.,1.));
#729=DIRECTION('ref_axis',(1.,0.,0.));
#730=DIRECTION('center_axis',(0.,0.,-1.));
#731=DIRECTION('ref_axis',(1.,0.,0.));
#732=DIRECTION('center_axis',(0.,0.,-1.));
#733=DIRECTION('ref_axis',(1.,0.,0.));
#734=DIRECTION('center_axis',(0.,0.,-1.));
#735=DIRECTION('ref_axis',(1.,0.,0.));
#736=DIRECTION('',(0.,0.,-1.));
#737=DIRECTION('center_axis',(0.,0.,1.));
#738=DIRECTION('ref_axis',(1.,0.,0.));
#739=DIRECTION('center_axis',(0.,0.,-1.));
#740=DIRECTION('ref_axis',(1.,0.,0.));
#741=DIRECTION('center_axis',(0.,0.,-1.));
#742=DIRECTION('ref_axis',(1.,0.,0.));
#743=DIRECTION('center_axis',(0.,0.,-1.));
#744=DIRECTION('ref_axis',(1.,0.,0.));
#745=DIRECTION('',(0.,0.,-1.));
#746=DIRECTION('center_axis',(0.,0.,1.));
#747=DIRECTION('ref_axis',(1.,0.,0.));
#748=DIRECTION('center_axis',(0.,0.,1.));
#749=DIRECTION('ref_axis',(7.04481399828022E-16,1.,0.));
#750=DIRECTION('center_axis',(0.,0.,-1.));
#751=DIRECTION('ref_axis',(1.83697019872103E-16,1.,0.));
#752=DIRECTION('center_axis',(0.,0.,1.));
#753=DIRECTION('ref_axis',(1.83697019872103E-16,1.,0.));
#754=DIRECTION('center_axis',(0.,0.,-1.));
#755=DIRECTION('ref_axis',(3.82856869892695E-16,1.,0.));
#756=DIRECTION('center_axis',(0.,0.,-1.));
#757=DIRECTION('ref_axis',(-1.83697019872103E-16,1.,0.));
#758=DIRECTION('center_axis',(0.,0.,1.));
#759=DIRECTION('ref_axis',(-1.83697019872103E-16,1.,0.));
#760=DIRECTION('center_axis',(0.,0.,-1.));
#761=DIRECTION('ref_axis',(-6.12323399573677E-17,1.,0.));
#762=DIRECTION('',(0.,0.,-1.));
#763=DIRECTION('center_axis',(0.,0.,-1.));
#764=DIRECTION('ref_axis',(-2.83276944882399E-16,1.,0.));
#765=DIRECTION('',(0.,0.,-1.));
#766=DIRECTION('center_axis',(0.,0.,1.));
#767=DIRECTION('ref_axis',(1.,0.,0.));
#768=DIRECTION('center_axis',(0.,0.,1.));
#769=DIRECTION('ref_axis',(1.,0.,0.));
#770=DIRECTION('center_axis',(0.,0.,1.));
#771=DIRECTION('ref_axis',(1.,0.,0.));
#772=DIRECTION('center_axis',(0.,0.,-1.));
#773=DIRECTION('ref_axis',(1.,0.,0.));
#774=DIRECTION('center_axis',(0.,0.,-1.));
#775=DIRECTION('ref_axis',(1.,0.,0.));
#776=DIRECTION('center_axis',(0.,0.,-1.));
#777=DIRECTION('ref_axis',(-6.12323399573677E-17,1.,0.));
#778=DIRECTION('center_axis',(0.,0.,-1.));
#779=DIRECTION('ref_axis',(6.12323399573677E-17,1.,0.));
#780=DIRECTION('center_axis',(0.,0.,1.));
#781=DIRECTION('ref_axis',(6.12323399573677E-17,1.,0.));
#782=DIRECTION('center_axis',(0.,0.,1.));
#783=DIRECTION('ref_axis',(-1.83697019872103E-16,1.,0.));
#784=DIRECTION('center_axis',(0.,0.,1.));
#785=DIRECTION('ref_axis',(-2.83276944882399E-16,1.,0.));
#786=DIRECTION('center_axis',(0.,0.,-1.));
#787=DIRECTION('ref_axis',(-1.83697019872103E-16,1.,0.));
#788=DIRECTION('center_axis',(0.,0.,1.));
#789=DIRECTION('ref_axis',(1.,0.,0.));
#790=DIRECTION('center_axis',(0.,-1.,0.));
#791=DIRECTION('ref_axis',(-1.,0.,0.));
#792=DIRECTION('',(-1.,0.,0.));
#793=DIRECTION('',(0.,0.,1.));
#794=DIRECTION('',(-1.,0.,0.));
#795=DIRECTION('',(0.,0.,-1.));
#796=DIRECTION('center_axis',(0.,0.,1.));
#797=DIRECTION('ref_axis',(1.,0.,0.));
#798=DIRECTION('center_axis',(0.,0.,-1.));
#799=DIRECTION('ref_axis',(1.,0.,0.));
#800=DIRECTION('center_axis',(0.,0.,1.));
#801=DIRECTION('ref_axis',(1.,0.,0.));
#802=DIRECTION('center_axis',(0.,0.,1.));
#803=DIRECTION('ref_axis',(1.,0.,0.));
#804=DIRECTION('',(0.,0.,-1.));
#805=DIRECTION('center_axis',(0.,0.,-1.));
#806=DIRECTION('ref_axis',(1.,0.,0.));
#807=DIRECTION('center_axis',(0.,0.,-1.));
#808=DIRECTION('ref_axis',(1.,0.,0.));
#809=DIRECTION('center_axis',(0.,0.,1.));
#810=DIRECTION('ref_axis',(1.,0.,0.));
#811=DIRECTION('center_axis',(0.,0.,1.));
#812=DIRECTION('ref_axis',(1.,0.,0.));
#813=DIRECTION('center_axis',(0.,0.,1.));
#814=DIRECTION('ref_axis',(1.,0.,0.));
#815=DIRECTION('center_axis',(0.,0.,1.));
#816=DIRECTION('ref_axis',(1.,0.,0.));
#817=DIRECTION('center_axis',(0.,0.,1.));
#818=DIRECTION('ref_axis',(1.,0.,0.));
#819=DIRECTION('',(0.,0.,-1.));
#820=DIRECTION('center_axis',(0.,0.,1.));
#821=DIRECTION('ref_axis',(1.,0.,0.));
#822=DIRECTION('center_axis',(0.,0.,1.));
#823=DIRECTION('ref_axis',(1.,0.,0.));
#824=DIRECTION('',(0.,0.,-1.));
#825=DIRECTION('center_axis',(0.,0.,1.));
#826=DIRECTION('ref_axis',(1.,0.,0.));
#827=DIRECTION('center_axis',(0.,0.,1.));
#828=DIRECTION('ref_axis',(1.,0.,0.));
#829=DIRECTION('center_axis',(0.,0.,1.));
#830=DIRECTION('ref_axis',(1.,0.,0.));
#831=DIRECTION('axis',(0.,0.,1.));
#832=DIRECTION('refdir',(1.,0.,0.));
#833=DIRECTION('center_axis',(0.,0.,-1.));
#834=DIRECTION('ref_axis',(-1.,0.,0.));
#835=DIRECTION('center_axis',(0.,0.,-1.));
#836=DIRECTION('ref_axis',(-1.,0.,0.));
#837=DIRECTION('center_axis',(0.,0.,-1.));
#838=DIRECTION('ref_axis',(-1.,0.,0.));
#839=DIRECTION('',(0.,0.,1.));
#840=DIRECTION('center_axis',(0.,0.,1.));
#841=DIRECTION('ref_axis',(-1.,0.,0.));
#842=DIRECTION('center_axis',(0.,0.,1.));
#843=DIRECTION('ref_axis',(-1.,0.,0.));
#844=DIRECTION('center_axis',(0.,0.,-1.));
#845=DIRECTION('ref_axis',(-1.,0.,0.));
#846=DIRECTION('center_axis',(0.,0.,1.));
#847=DIRECTION('ref_axis',(1.,0.,0.));
#848=DIRECTION('center_axis',(0.,0.,-1.));
#849=DIRECTION('ref_axis',(-1.,1.22464679914735E-16,0.));
#850=DIRECTION('center_axis',(1.22464679914735E-16,-1.,0.));
#851=DIRECTION('ref_axis',(-1.,-1.22464679914735E-16,0.));
#852=DIRECTION('center_axis',(0.,0.,1.));
#853=DIRECTION('ref_axis',(-1.,1.22464679914735E-16,0.));
#854=DIRECTION('center_axis',(0.,0.,1.));
#855=DIRECTION('ref_axis',(-1.,1.22464679914735E-16,0.));
#856=DIRECTION('center_axis',(0.,0.,-1.));
#857=DIRECTION('ref_axis',(-1.,1.22464679914735E-16,0.));
#858=DIRECTION('center_axis',(0.,0.,1.));
#859=DIRECTION('ref_axis',(1.,0.,0.));
#860=DIRECTION('',(0.,0.,-1.));
#861=DIRECTION('center_axis',(0.,0.,1.));
#862=DIRECTION('ref_axis',(1.,0.,0.));
#863=DIRECTION('center_axis',(0.,0.,1.));
#864=DIRECTION('ref_axis',(1.,0.,0.));
#865=DIRECTION('center_axis',(0.,0.,1.));
#866=DIRECTION('ref_axis',(1.,0.,0.));
#867=DIRECTION('center_axis',(0.,0.,1.));
#868=DIRECTION('ref_axis',(1.,0.,0.));
#869=DIRECTION('',(-2.08166817117217E-17,-5.55111512312579E-17,1.));
#870=DIRECTION('',(1.,-1.66533453693773E-16,2.08166817117217E-17));
#871=DIRECTION('',(6.93889390390722E-18,-5.55111512312578E-17,1.));
#872=DIRECTION('',(1.,6.93889390390723E-18,-6.93889390390722E-18));
#873=CARTESIAN_POINT('',(0.,0.,0.));
#874=CARTESIAN_POINT('',(0.,0.,0.));
#875=CARTESIAN_POINT('Origin',(-7.75,-13.4233937586588,26.5));
#876=CARTESIAN_POINT('',(-6.25,-13.4233937586588,26.5));
#877=CARTESIAN_POINT('',(-9.25,-13.4233937586588,26.5));
#878=CARTESIAN_POINT('Origin',(-7.75,-13.4233937586588,26.5));
#879=CARTESIAN_POINT('Origin',(-7.75,-13.4233937586588,26.5));
#880=CARTESIAN_POINT('',(-9.25,-13.4233937586588,0.));
#881=CARTESIAN_POINT('',(-9.25,-13.4233937586588,26.5));
#882=CARTESIAN_POINT('Origin',(-7.75,-13.4233937586588,0.));
#883=CARTESIAN_POINT('Origin',(7.75000000000001,13.4233937586588,26.5));
#884=CARTESIAN_POINT('',(9.25000000000001,13.4233937586588,26.5));
#885=CARTESIAN_POINT('',(6.25000000000001,13.4233937586588,26.5));
#886=CARTESIAN_POINT('Origin',(7.75000000000001,13.4233937586588,26.5));
#887=CARTESIAN_POINT('Origin',(7.75000000000001,13.4233937586588,26.5));
#888=CARTESIAN_POINT('',(6.25000000000001,13.4233937586588,0.));
#889=CARTESIAN_POINT('',(6.25000000000001,13.4233937586588,26.5));
#890=CARTESIAN_POINT('Origin',(7.75000000000001,13.4233937586588,0.));
#891=CARTESIAN_POINT('Origin',(-15.5,-3.89923082863073E-16,26.5));
#892=CARTESIAN_POINT('',(-14.,-3.89923082863073E-16,26.5));
#893=CARTESIAN_POINT('',(-17.,-2.0622606299097E-16,26.5));
#894=CARTESIAN_POINT('Origin',(-15.5,-3.89923082863073E-16,26.5));
#895=CARTESIAN_POINT('Origin',(-15.5,-3.89923082863073E-16,26.5));
#896=CARTESIAN_POINT('',(-17.,-5.73620102735176E-16,0.));
#897=CARTESIAN_POINT('',(-17.,-2.0622606299097E-16,26.5));
#898=CARTESIAN_POINT('Origin',(-15.5,-3.89923082863073E-16,0.));
#899=CARTESIAN_POINT('Origin',(7.75,-13.4233937586588,26.5));
#900=CARTESIAN_POINT('',(9.25,-13.4233937586588,26.5));
#901=CARTESIAN_POINT('',(6.25,-13.4233937586588,26.5));
#902=CARTESIAN_POINT('Origin',(7.75,-13.4233937586588,26.5));
#903=CARTESIAN_POINT('Origin',(7.75,-13.4233937586588,26.5));
#904=CARTESIAN_POINT('',(6.25,-13.4233937586588,0.));
#905=CARTESIAN_POINT('',(6.25,-13.4233937586588,26.5));
#906=CARTESIAN_POINT('Origin',(7.75,-13.4233937586588,0.));
#907=CARTESIAN_POINT('Origin',(15.5,-4.3484523785043E-15,26.5));
#908=CARTESIAN_POINT('',(17.,-4.3484523785043E-15,26.5));
#909=CARTESIAN_POINT('',(14.,-4.1647553586322E-15,26.5));
#910=CARTESIAN_POINT('Origin',(15.5,-4.3484523785043E-15,26.5));
#911=CARTESIAN_POINT('Origin',(15.5,-4.3484523785043E-15,26.5));
#912=CARTESIAN_POINT('',(14.,-4.53214939837641E-15,0.));
#913=CARTESIAN_POINT('',(14.,-4.1647553586322E-15,26.5));
#914=CARTESIAN_POINT('Origin',(15.5,-4.3484523785043E-15,0.));
#915=CARTESIAN_POINT('Origin',(-7.75,13.4233937586588,26.5));
#916=CARTESIAN_POINT('',(-6.25,13.4233937586588,26.5));
#917=CARTESIAN_POINT('',(-9.25,13.4233937586588,26.5));
#918=CARTESIAN_POINT('Origin',(-7.75,13.4233937586588,26.5));
#919=CARTESIAN_POINT('Origin',(-7.75,13.4233937586588,26.5));
#920=CARTESIAN_POINT('',(-9.25,13.4233937586588,0.));
#921=CARTESIAN_POINT('',(-9.25,13.4233937586588,26.5));
#922=CARTESIAN_POINT('Origin',(-7.75,13.4233937586588,0.));
#923=CARTESIAN_POINT('Origin',(0.,-7.,26.));
#924=CARTESIAN_POINT('',(-6.43403196657732,-11.7542857142857,26.5));
#925=CARTESIAN_POINT('',(6.43403196657732,-11.7542857142857,26.5));
#926=CARTESIAN_POINT('Origin',(0.,-7.,26.5));
#927=CARTESIAN_POINT('',(7.86414441289952,-10.2257142857143,26.));
#928=CARTESIAN_POINT('Ctrl Pts',(6.43403196657732,-11.7542857142857,26.5));
#929=CARTESIAN_POINT('Ctrl Pts',(6.4376125318345,-11.7511603400716,26.5));
#930=CARTESIAN_POINT('Ctrl Pts',(6.44119093532204,-11.7480324687886,26.4999968646092));
#931=CARTESIAN_POINT('Ctrl Pts',(6.97979915641361,-11.2765761954009,26.4990501542132));
#932=CARTESIAN_POINT('Ctrl Pts',(7.36543490972472,-10.8405522747986,26.4279644889737));
#933=CARTESIAN_POINT('Ctrl Pts',(7.65225150977324,-10.4945444992327,26.2850428749576));
#934=CARTESIAN_POINT('Ctrl Pts',(7.72388447791321,-10.4059409661516,26.2436198976337));
#935=CARTESIAN_POINT('Ctrl Pts',(7.80016247423672,-10.308724926342,26.1641934767314));
#936=CARTESIAN_POINT('Ctrl Pts',(7.82097648875828,-10.2818990052184,26.1379005692739));
#937=CARTESIAN_POINT('Ctrl Pts',(7.84560389117878,-10.249934542021,26.0903541452442));
#938=CARTESIAN_POINT('Ctrl Pts',(7.85322008197246,-10.2399982232996,26.0713275170975));
#939=CARTESIAN_POINT('Ctrl Pts',(7.86201933432402,-10.2284989575057,26.0342958920117));
#940=CARTESIAN_POINT('Ctrl Pts',(7.86414441289952,-10.2257142857143,26.0174244299652));
#941=CARTESIAN_POINT('Ctrl Pts',(7.86414441289952,-10.2257142857143,26.));
#942=CARTESIAN_POINT('',(-7.86414441289952,-10.2257142857143,26.));
#943=CARTESIAN_POINT('Origin',(0.,-7.,26.));
#944=CARTESIAN_POINT('Ctrl Pts',(-7.86414441289952,-10.2257142857143,26.));
#945=CARTESIAN_POINT('Ctrl Pts',(-7.86414441289952,-10.2257142857143,26.0174244299652));
#946=CARTESIAN_POINT('Ctrl Pts',(-7.86201933432402,-10.2284989575057,26.0342958920117));
#947=CARTESIAN_POINT('Ctrl Pts',(-7.85322008197246,-10.2399982232996,26.0713275170975));
#948=CARTESIAN_POINT('Ctrl Pts',(-7.84560389117878,-10.249934542021,26.0903541452442));
#949=CARTESIAN_POINT('Ctrl Pts',(-7.82097648875829,-10.2818990052184,26.1379005692739));
#950=CARTESIAN_POINT('Ctrl Pts',(-7.80016247423673,-10.308724926342,26.1641934767314));
#951=CARTESIAN_POINT('Ctrl Pts',(-7.72388447791343,-10.4059409661513,26.2436198976335));
#952=CARTESIAN_POINT('Ctrl Pts',(-7.65225150977376,-10.4945444992321,26.2850428749573));
#953=CARTESIAN_POINT('Ctrl Pts',(-7.36543490976273,-10.8405522747528,26.4279644889548));
#954=CARTESIAN_POINT('Ctrl Pts',(-6.97979915649682,-11.276576195328,26.4990501542131));
#955=CARTESIAN_POINT('Ctrl Pts',(-6.44119093532102,-11.7480324687895,26.4999968646092));
#956=CARTESIAN_POINT('Ctrl Pts',(-6.43761253183552,-11.7511603400707,26.5));
#957=CARTESIAN_POINT('Ctrl Pts',(-6.43403196657732,-11.7542857142857,26.5));
#958=CARTESIAN_POINT('Origin',(0.,0.,26.));
#959=CARTESIAN_POINT('Origin',(0.,0.,26.));
#960=CARTESIAN_POINT('Origin',(0.,0.,26.5));
#961=CARTESIAN_POINT('Origin',(0.,-7.,26.5));
#962=CARTESIAN_POINT('',(7.86414441289952,-10.2257142857143,25.));
#963=CARTESIAN_POINT('',(7.86414441289952,-10.2257142857143,26.5));
#964=CARTESIAN_POINT('',(-7.86414441289952,-10.2257142857143,25.));
#965=CARTESIAN_POINT('Origin',(0.,-7.,25.));
#966=CARTESIAN_POINT('',(-7.86414441289952,-10.2257142857143,26.5));
#967=CARTESIAN_POINT('Origin',(0.,0.,26.5));
#968=CARTESIAN_POINT('',(18.4,0.,26.5));
#969=CARTESIAN_POINT('',(-18.4,-2.25335011043113E-15,26.5));
#970=CARTESIAN_POINT('Origin',(0.,0.,26.5));
#971=CARTESIAN_POINT('Origin',(0.,0.,26.5));
#972=CARTESIAN_POINT('',(6.,-7.,26.5));
#973=CARTESIAN_POINT('',(-6.,-7.,26.5));
#974=CARTESIAN_POINT('Origin',(0.,-7.,26.5));
#975=CARTESIAN_POINT('Origin',(0.,-7.,26.5));
#976=CARTESIAN_POINT('Origin',(0.,0.,25.));
#977=CARTESIAN_POINT('',(-8.83853529282137,-8.69714285714286,24.5));
#978=CARTESIAN_POINT('',(8.83853529282137,-8.69714285714286,24.5));
#979=CARTESIAN_POINT('Origin',(0.,0.,24.5));
#980=CARTESIAN_POINT('Ctrl Pts',(8.83853529282137,-8.69714285714286,24.5));
#981=CARTESIAN_POINT('Ctrl Pts',(8.83685452143773,-8.7003437490287,24.5));
#982=CARTESIAN_POINT('Ctrl Pts',(8.83517214920064,-8.70354381942117,24.5000032887498));
#983=CARTESIAN_POINT('Ctrl Pts',(8.57865503237132,-9.19088055858342,24.5010044761213));
#984=CARTESIAN_POINT('Ctrl Pts',(8.30717780859003,-9.60958642550619,24.5749194217864));
#985=CARTESIAN_POINT('Ctrl Pts',(8.0487659534882,-9.97763363688088,24.7224360192927));
#986=CARTESIAN_POINT('Ctrl Pts',(7.99106350150467,-10.0564651454864,24.7657764454521));
#987=CARTESIAN_POINT('Ctrl Pts',(7.92775320678658,-10.1416542934626,24.8347579587341));
#988=CARTESIAN_POINT('Ctrl Pts',(7.90713965108204,-10.1690784504695,24.86149830366));
#989=CARTESIAN_POINT('Ctrl Pts',(7.88265730448279,-10.2014180153532,24.909494462929));
#990=CARTESIAN_POINT('Ctrl Pts',(7.87505499959427,-10.2114084054965,24.9286025477349));
#991=CARTESIAN_POINT('Ctrl Pts',(7.86627218958673,-10.2229304213797,24.9657061422058));
#992=CARTESIAN_POINT('Ctrl Pts',(7.86414441289952,-10.2257142857143,24.9825737296356));
#993=CARTESIAN_POINT('Ctrl Pts',(7.86414441289952,-10.2257142857143,25.));
#994=CARTESIAN_POINT('Origin',(0.,0.,25.));
#995=CARTESIAN_POINT('Ctrl Pts',(-8.83853529282137,-8.69714285714286,24.5));
#996=CARTESIAN_POINT('Ctrl Pts',(-8.83686487274877,-8.70032403580188,24.5));
#997=CARTESIAN_POINT('Ctrl Pts',(-8.8351928715214,-8.70350440297688,24.500003248366));
#998=CARTESIAN_POINT('Ctrl Pts',(-8.69616914715202,-8.96762859522935,24.5005425255381));
#999=CARTESIAN_POINT('Ctrl Pts',(-8.54301013766899,-9.23132347139718,24.5225360596803));
#1000=CARTESIAN_POINT('Ctrl Pts',(-8.25087935011168,-9.69067162529355,24.6112186386085));
#1001=CARTESIAN_POINT('Ctrl Pts',(-8.12559864729046,-9.87026897500799,24.6693877306151));
#1002=CARTESIAN_POINT('Ctrl Pts',(-7.99450510604345,-10.0516757453973,24.7660337245508));
#1003=CARTESIAN_POINT('Ctrl Pts',(-7.95322352401186,-10.1076075049728,24.8018907681433));
#1004=CARTESIAN_POINT('Ctrl Pts',(-7.90602823100912,-10.1705474212888,24.8652778093856));
#1005=CARTESIAN_POINT('Ctrl Pts',(-7.89176742088498,-10.1894077964409,24.8884583950429));
#1006=CARTESIAN_POINT('Ctrl Pts',(-7.87465896190976,-10.2119327721288,24.9309884661703));
#1007=CARTESIAN_POINT('Ctrl Pts',(-7.86943418917858,-10.2187838863904,24.948756463585));
#1008=CARTESIAN_POINT('Ctrl Pts',(-7.86496147789256,-10.2246448548858,24.9784619540376));
#1009=CARTESIAN_POINT('Ctrl Pts',(-7.86414441289953,-10.2257142857143,24.9892009076458));
#1010=CARTESIAN_POINT('Ctrl Pts',(-7.86414441289953,-10.2257142857143,25.));
#1011=CARTESIAN_POINT('Origin',(0.,-7.,25.));
#1012=CARTESIAN_POINT('Origin',(0.,-7.,24.5));
#1013=CARTESIAN_POINT('Origin',(0.,0.,26.5));
#1014=CARTESIAN_POINT('Origin',(0.,1.33714285714286,24.5));
#1015=CARTESIAN_POINT('Origin',(1.8,-4.6,48.5));
#1016=CARTESIAN_POINT('',(1.8,-4.6,48.5));
#1017=CARTESIAN_POINT('',(-1.8,-4.6,48.5));
#1018=CARTESIAN_POINT('',(0.900000000000001,-4.6,48.5));
#1019=CARTESIAN_POINT('',(1.8,-4.6,36.5));
#1020=CARTESIAN_POINT('',(1.8,-4.6,32.5));
#1021=CARTESIAN_POINT('',(-1.8,-4.6,36.5));
#1022=CARTESIAN_POINT('',(-1.8,-4.6,36.5));
#1023=CARTESIAN_POINT('',(-1.8,-4.6,32.5));
#1024=CARTESIAN_POINT('Origin',(0.,-4.3,36.5));
#1025=CARTESIAN_POINT('Origin',(0.,-7.,36.5));
#1026=CARTESIAN_POINT('Origin',(0.,-7.,32.5));
#1027=CARTESIAN_POINT('',(-3.,-7.,48.5));
#1028=CARTESIAN_POINT('Origin',(0.,-7.,48.5));
#1029=CARTESIAN_POINT('',(-3.,-7.,32.5));
#1030=CARTESIAN_POINT('',(-3.,-7.,32.5));
#1031=CARTESIAN_POINT('',(3.,-7.,32.5));
#1032=CARTESIAN_POINT('Origin',(0.,-7.,32.5));
#1033=CARTESIAN_POINT('Origin',(0.,-7.,32.5));
#1034=CARTESIAN_POINT('Origin',(0.,-7.,48.5));
#1035=CARTESIAN_POINT('Origin',(0.,-7.,48.5));
#1036=CARTESIAN_POINT('Origin',(0.,-7.,26.5));
#1037=CARTESIAN_POINT('',(6.,-7.,32.5));
#1038=CARTESIAN_POINT('',(-6.,-7.,32.5));
#1039=CARTESIAN_POINT('Origin',(0.,-7.,32.5));
#1040=CARTESIAN_POINT('Origin',(0.,-7.,32.5));
#1041=CARTESIAN_POINT('',(-6.,-7.,26.5));
#1042=CARTESIAN_POINT('Origin',(0.,-7.,32.5));
#1043=CARTESIAN_POINT('Origin',(0.,0.,0.));
#1044=CARTESIAN_POINT('',(-18.4,-2.25335011043113E-15,0.));
#1045=CARTESIAN_POINT('',(-18.4,-2.25335011043113E-15,0.));
#1046=CARTESIAN_POINT('',(18.4,0.,0.));
#1047=CARTESIAN_POINT('Origin',(0.,0.,0.));
#1048=CARTESIAN_POINT('Origin',(0.,0.,0.));
#1049=CARTESIAN_POINT('Origin',(0.,0.,0.));
#1050=CARTESIAN_POINT('',(0.,0.,0.));
#1051=CARTESIAN_POINT('Origin',(0.,0.,0.));
#1052=CARTESIAN_POINT('',(-17.,0.,-15.4));
#1053=CARTESIAN_POINT('',(17.,-2.0818995585505E-15,-15.4));
#1054=CARTESIAN_POINT('Origin',(0.,0.,-15.4));
#1055=CARTESIAN_POINT('Origin',(0.,0.,-15.4));
#1056=CARTESIAN_POINT('',(17.,-2.0818995585505E-15,0.));
#1057=CARTESIAN_POINT('',(17.,-2.0818995585505E-15,0.));
#1058=CARTESIAN_POINT('',(-17.,0.,0.));
#1059=CARTESIAN_POINT('Origin',(0.,0.,0.));
#1060=CARTESIAN_POINT('Origin',(0.,0.,0.));
#1061=CARTESIAN_POINT('Origin',(0.,0.,-15.4));
#1062=CARTESIAN_POINT('Origin',(0.,0.,25.5));
#1063=CARTESIAN_POINT('',(16.5,-4.04133443718627E-15,26.5));
#1064=CARTESIAN_POINT('',(-16.5,-2.02066721859313E-15,26.5));
#1065=CARTESIAN_POINT('Origin',(0.,0.,26.5));
#1066=CARTESIAN_POINT('',(-17.5,-2.14313189850787E-15,25.5));
#1067=CARTESIAN_POINT('Origin',(-16.5,-2.02066721859313E-15,25.5));
#1068=CARTESIAN_POINT('',(17.5,0.,25.5));
#1069=CARTESIAN_POINT('Origin',(0.,0.,25.5));
#1070=CARTESIAN_POINT('Origin',(0.,0.,25.5));
#1071=CARTESIAN_POINT('Origin',(0.,0.,26.5));
#1072=CARTESIAN_POINT('Origin',(0.,0.,0.));
#1073=CARTESIAN_POINT('',(-17.5,-2.14313189850787E-15,0.));
#1074=CARTESIAN_POINT('',(-17.5,-2.14313189850787E-15,0.));
#1075=CARTESIAN_POINT('',(17.5,0.,0.));
#1076=CARTESIAN_POINT('Origin',(0.,0.,0.));
#1077=CARTESIAN_POINT('Origin',(0.,0.,0.));
#1078=CARTESIAN_POINT('Origin',(0.,0.,26.5));
#1079=CARTESIAN_POINT('Origin',(0.,0.,0.));
#1080=CARTESIAN_POINT('',(-38.5321050676683,22.3267613499899,27.4421999262309));
#1081=CARTESIAN_POINT('',(-38.5321050676683,22.3267613499899,0.942199926230893));
#1082=UNCERTAINTY_MEASURE_WITH_UNIT(LENGTH_MEASURE(0.01),#1090,
'DISTANCE_ACCURACY_VALUE',
'Maximum model space distance between geometric entities at asserted c
onnectivities');
#1083=UNCERTAINTY_MEASURE_WITH_UNIT(LENGTH_MEASURE(0.01),#1090,
'DISTANCE_ACCURACY_VALUE',
'Maximum model space distance between geometric entities at asserted c
onnectivities');
#1084=UNCERTAINTY_MEASURE_WITH_UNIT(LENGTH_MEASURE(0.01),#1090,
'DISTANCE_ACCURACY_VALUE',
'Maximum model space distance between geometric entities at asserted c
onnectivities');
#1085=UNCERTAINTY_MEASURE_WITH_UNIT(LENGTH_MEASURE(0.01),#1090,
'DISTANCE_ACCURACY_VALUE',
'Maximum model space distance between geometric entities at asserted c
onnectivities');
#1086=(
GEOMETRIC_REPRESENTATION_CONTEXT(3)
GLOBAL_UNCERTAINTY_ASSIGNED_CONTEXT((#1082))
GLOBAL_UNIT_ASSIGNED_CONTEXT((#1090,#1092,#1093))
REPRESENTATION_CONTEXT('','3D')
);
#1087=(
GEOMETRIC_REPRESENTATION_CONTEXT(3)
GLOBAL_UNCERTAINTY_ASSIGNED_CONTEXT((#1083))
GLOBAL_UNIT_ASSIGNED_CONTEXT((#1090,#1092,#1093))
REPRESENTATION_CONTEXT('','3D')
);
#1088=(
GEOMETRIC_REPRESENTATION_CONTEXT(3)
GLOBAL_UNCERTAINTY_ASSIGNED_CONTEXT((#1084))
GLOBAL_UNIT_ASSIGNED_CONTEXT((#1090,#1092,#1093))
REPRESENTATION_CONTEXT('','3D')
);
#1089=(
GEOMETRIC_REPRESENTATION_CONTEXT(3)
GLOBAL_UNCERTAINTY_ASSIGNED_CONTEXT((#1085))
GLOBAL_UNIT_ASSIGNED_CONTEXT((#1090,#1092,#1093))
REPRESENTATION_CONTEXT('','3D')
);
#1090=(
LENGTH_UNIT()
NAMED_UNIT(*)
SI_UNIT(.MILLI.,.METRE.)
);
#1091=(
LENGTH_UNIT()
NAMED_UNIT(*)
SI_UNIT(.CENTI.,.METRE.)
);
#1092=(
NAMED_UNIT(*)
PLANE_ANGLE_UNIT()
SI_UNIT($,.RADIAN.)
);
#1093=(
NAMED_UNIT(*)
SI_UNIT($,.STERADIAN.)
SOLID_ANGLE_UNIT()
);
#1094=SHAPE_DEFINITION_REPRESENTATION(#1097,#1102);
#1095=SHAPE_DEFINITION_REPRESENTATION(#1098,#1103);
#1096=SHAPE_DEFINITION_REPRESENTATION(#1099,#1104);
#1097=PRODUCT_DEFINITION_SHAPE('',$,#1106);
#1098=PRODUCT_DEFINITION_SHAPE('',$,#1107);
#1099=PRODUCT_DEFINITION_SHAPE('',$,#1108);
#1100=PRODUCT_DEFINITION_SHAPE($,$,#17);
#1101=PRODUCT_DEFINITION_SHAPE($,$,#18);
#1102=SHAPE_REPRESENTATION('',(#607,#688,#689),#1086);
#1103=SHAPE_REPRESENTATION('',(#608),#1087);
#1104=SHAPE_REPRESENTATION('',(#670),#1088);
#1105=PRODUCT_DEFINITION_CONTEXT('part definition',#1116,'design');
#1106=PRODUCT_DEFINITION(
'Metal Geaerbox DC Motor 37D With 64 CPR Encoder Pololu',
'Metal Geaerbox DC Motor 37D With 64 CPR Encoder Pololu',#1109,#1105);
#1107=PRODUCT_DEFINITION('37D mm Metal Gearbox Polulu',
'37D mm Metal Gearbox Polulu',#1110,#1105);
#1108=PRODUCT_DEFINITION('Motor DC 37D mm With 64 CPR Encoder',
'Motor DC 37D mm With 64 CPR Encoder',#1111,#1105);
#1109=PRODUCT_DEFINITION_FORMATION('',$,#1118);
#1110=PRODUCT_DEFINITION_FORMATION('',$,#1119);
#1111=PRODUCT_DEFINITION_FORMATION('',$,#1120);
#1112=PRODUCT_RELATED_PRODUCT_CATEGORY(
'Metal Geaerbox DC Motor 37D With 64 CPR Encoder Pololu',
'Metal Geaerbox DC Motor 37D With 64 CPR Encoder Pololu',(#1118));
#1113=PRODUCT_RELATED_PRODUCT_CATEGORY('37D mm Metal Gearbox Polulu',
'37D mm Metal Gearbox Polulu',(#1119));
#1114=PRODUCT_RELATED_PRODUCT_CATEGORY(
'Motor DC 37D mm With 64 CPR Encoder',
'Motor DC 37D mm With 64 CPR Encoder',(#1120));
#1115=APPLICATION_PROTOCOL_DEFINITION('international standard',
'automotive_design',2009,#1116);
#1116=APPLICATION_CONTEXT(
'Core Data for Automotive Mechanical Design Process');
#1117=PRODUCT_CONTEXT('part definition',#1116,'mechanical');
#1118=PRODUCT('Metal Geaerbox DC Motor 37D With 64 CPR Encoder Pololu',
'Metal Geaerbox DC Motor 37D With 64 CPR Encoder Pololu',$,(#1117));
#1119=PRODUCT('37D mm Metal Gearbox Polulu',
'37D mm Metal Gearbox Polulu',$,(#1117));
#1120=PRODUCT('Motor DC 37D mm With 64 CPR Encoder',
'Motor DC 37D mm With 64 CPR Encoder',$,(#1117));
ENDSEC;
END-ISO-10303-21;
